<svg xmlns="http://www.w3.org/2000/svg" width="9.969" height="6" viewBox="0 0 9.969 6">
  <defs>
    <style>
      .cls-1 {
        fill: #fff;
        fill-rule: evenodd;
      }
    </style>
  </defs>
  <path id="open_icon.svg" class="cls-1" d="M694.7,1335.27a0.934,0.934,0,0,1,0,1.33l-4.075,4.13a0.955,0.955,0,0,1-1.346,0,0.944,0.944,0,0,1,0-1.34l4.074-4.12A0.956,0.956,0,0,1,694.7,1335.27Zm-9.428,0a0.943,0.943,0,0,1,1.336,0l4.126,4.1a0.962,0.962,0,0,1,0,1.35,0.925,0.925,0,0,1-1.336,0l-4.126-4.09A0.974,0.974,0,0,1,685.269,1335.27Z" transform="translate(-685 -1335)"/>
</svg>
