<svg xmlns="http://www.w3.org/2000/svg" width="14" height="11" viewBox="0 0 14 11">
  <defs>
    <style>
      .cls-1 {
        fill: #fff;
        fill-rule: evenodd;
      }
    </style>
  </defs>
  <path id="twitter_logo.svg" class="cls-1" d="M314,997.3a5.89,5.89,0,0,1-1.65.438,2.806,2.806,0,0,0,1.263-1.537,5.893,5.893,0,0,1-1.824.674,2.914,2.914,0,0,0-2.1-.877,2.826,2.826,0,0,0-2.872,2.777,2.658,2.658,0,0,0,.075.634,8.25,8.25,0,0,1-5.921-2.9,2.7,2.7,0,0,0-.388,1.4,2.749,2.749,0,0,0,1.277,2.31,2.91,2.91,0,0,1-1.3-.345c0,0.011,0,.022,0,0.034a2.793,2.793,0,0,0,2.3,2.721,2.7,2.7,0,0,1-.756.1,3.191,3.191,0,0,1-.541-0.05,2.866,2.866,0,0,0,2.683,1.93,5.856,5.856,0,0,1-3.567,1.19,5.165,5.165,0,0,1-.685-0.04,8.317,8.317,0,0,0,4.4,1.25,7.976,7.976,0,0,0,8.172-7.9c0-.121,0-0.241-0.008-0.36A5.726,5.726,0,0,0,314,997.3Z" transform="translate(-300 -996)"/>
</svg>
