<svg xmlns="http://www.w3.org/2000/svg" width="24" height="22" viewBox="0 0 24 22">
  <defs>
    <style>
      .cls-1 {
        fill: #fff;
        fill-rule: evenodd;
      }
    </style>
  </defs>
  <path id="brush.svg" class="cls-1" d="M495.331,5549.61c-2.695,3.08-5.724,6.04-6.787,7.06a2.4,2.4,0,0,1-1.22.62h-0.007a0.113,0.113,0,0,0-.056.01h-0.008a3.049,3.049,0,0,0-1.609.97l-1,1-0.062.07h0a0.52,0.52,0,0,0,.033.69,0.585,0.585,0,0,0,.163.11,0.016,0.016,0,0,1,.016.01,5.244,5.244,0,0,1,1.875,1.23,5.324,5.324,0,0,1,1.2,1.85l0.035,0.09a0.463,0.463,0,0,0,.1.13,0.506,0.506,0,0,0,.688.03l0.063-.06h0l1-1.01a3.114,3.114,0,0,0,.961-1.62c0-.03.006-0.05,0.009-0.07a2.332,2.332,0,0,1,.615-1.23h0c1.045-1.11,4.067-4.27,7.014-6.84a2.108,2.108,0,0,0,0-3.04A2.133,2.133,0,0,0,495.331,5549.61Zm-13.061,11.71c-0.016.01-.033,0.01-0.051,0.02a5.083,5.083,0,0,0-3.625,3.41,7.207,7.207,0,0,1-.811,1.78c-1.321,2-2.5,2.04-2.761,2.51-0.176.32,0.622,1.67,2.593,1.91a10.045,10.045,0,0,0,4.638-.65,8.6,8.6,0,0,0,1.691-.86,6.461,6.461,0,0,0,2.614-3.15c0.011-.04.023-0.06,0.032-0.1a3.731,3.731,0,0,0-.869-3.86A3.693,3.693,0,0,0,482.27,5561.32Z" transform="translate(-475 -5549)"/>
</svg>
