<svg xmlns="http://www.w3.org/2000/svg" width="28" height="20" viewBox="0 0 28 20">
  <defs>
    <style>
      .cls-1 {
        fill: #fff;
        fill-rule: evenodd;
      }
    </style>
  </defs>
  <path id="Keyboard.svg" class="cls-1" d="M757.093,5561.66h-1.188a1.006,1.006,0,0,0-.987,1.02v0.93a1,1,0,0,0,.987,1.02h1.188a1,1,0,0,0,.986-1.02v-0.93A1.007,1.007,0,0,0,757.093,5561.66Zm-4.255,0h-9.7a1.006,1.006,0,0,0-.987,1.02v0.93a1,1,0,0,0,.987,1.02h9.7a1,1,0,0,0,.986-1.02v-0.93A1.006,1.006,0,0,0,752.838,5561.66Zm-12.764,0h-1.189a1.007,1.007,0,0,0-.987,1.02v0.93a1,1,0,0,0,.987,1.02h1.189a1,1,0,0,0,.984-1.02v-0.93A1,1,0,0,0,740.074,5561.66Zm-1.189-1.17h5.442a1.006,1.006,0,0,0,.987-1.02v-0.94a1,1,0,0,0-.987-1.01h-5.442a1,1,0,0,0-.987,1.01v0.94A1.007,1.007,0,0,0,738.885,5560.49Zm8.51,0h1.187a1.008,1.008,0,0,0,.988-1.02v-0.94a1,1,0,0,0-.988-1.01H747.4a1,1,0,0,0-.986,1.01v0.94A1,1,0,0,0,747.4,5560.49Zm12.829-11.48h-24.47a1.8,1.8,0,0,0-1.766,1.83v16.32a1.8,1.8,0,0,0,1.766,1.83h24.47a1.8,1.8,0,0,0,1.766-1.83v-16.32A1.8,1.8,0,0,0,760.224,5549.01Zm-0.642,3.51v13.24a0.819,0.819,0,0,1-.741.78h-21.7a0.82,0.82,0,0,1-.742-0.78c0-.02,0-0.03,0-0.05s0-.03,0-0.04v-13.11c0-.01,0-0.03,0-0.04s0-.03,0-0.04a0.817,0.817,0,0,1,.8-0.79h21.582a0.818,0.818,0,0,1,.8.79v0.04Zm-2.489.85H751.65a1.006,1.006,0,0,0-.986,1.02v0.93a1.006,1.006,0,0,0,.986,1.02h2.866a0.4,0.4,0,0,1,.4.41v2.72a1.006,1.006,0,0,0,.987,1.02h1.188a1.007,1.007,0,0,0,.986-1.02v-5.08A1.007,1.007,0,0,0,757.093,5553.37Zm-4.255,4.15H751.65a1,1,0,0,0-.986,1.01v0.94a1.006,1.006,0,0,0,.986,1.02h1.188a1.006,1.006,0,0,0,.986-1.02v-0.94A1,1,0,0,0,752.838,5557.52Zm-5.443-1.18h1.187a1.008,1.008,0,0,0,.988-1.02v-0.93a1.008,1.008,0,0,0-.988-1.02H747.4a1,1,0,0,0-.986,1.02v0.93A1,1,0,0,0,747.4,5556.34Zm-4.254,0h1.186a1.006,1.006,0,0,0,.987-1.02v-0.93a1.006,1.006,0,0,0-.987-1.02h-1.186a1.006,1.006,0,0,0-.987,1.02v0.93A1.006,1.006,0,0,0,743.141,5556.34Zm-4.256,0h1.189a1,1,0,0,0,.984-1.02v-0.93a1,1,0,0,0-.984-1.02h-1.189a1.007,1.007,0,0,0-.987,1.02v0.93A1.007,1.007,0,0,0,738.885,5556.34Z" transform="translate(-734 -5549)"/>
</svg>
