<svg xmlns="http://www.w3.org/2000/svg" width="24.031" height="23.97" viewBox="0 0 24.031 23.97">
  <defs>
    <style>
      .cls-1 {
        fill: #fff;
        fill-rule: evenodd;
      }
    </style>
  </defs>
  <path id="pencil.svg" class="cls-1" d="M223.306,5547.58c-0.072.06-.141,0.11-0.208,0.17l-0.123.12h0l-0.5.47c0,0.01,0,.01,0,0.01l-0.072.06a1.57,1.57,0,0,1-1.9.15c-0.006,0-.013-0.01-0.019-0.01s-0.012-.01-0.018-0.01a1.585,1.585,0,0,0-1.9.14l-0.077.08-7.2,6.86-0.088.09a0.606,0.606,0,0,0,.031.83,0.613,0.613,0,0,0,.836.03l0.03-.03a0.017,0.017,0,0,0,0-.01l5.868-5.6a0.365,0.365,0,0,1,.027-0.03c0.016-.02.034-0.03,0.053-0.05a0.546,0.546,0,0,1,.238-0.11,0.609,0.609,0,0,1,.6,1l-0.022.03c-0.014.01-.031,0.03-0.046,0.04h0l-8.271,7.82-2.383,2.25a0.059,0.059,0,0,1-.027.02,0.717,0.717,0,0,0,0,1.01l3.954,3.95a0.707,0.707,0,0,0,.975.02h0l0.075-.08h0l2.229-2.35,11.765-12.43h0l0.116-.12c0.059-.07.115-0.14,0.169-0.21A2.939,2.939,0,0,0,223.306,5547.58Zm-12.14,20.82a0.529,0.529,0,0,0,0-.75l-1.915-1.92-1.916-1.91a0.528,0.528,0,0,0-.752,0,0.483,0.483,0,0,0-.095.13h0c-0.448.93-.947,2.06-1.292,2.93-0.288.73-.537,1.42-0.748,2.02h0a0.264,0.264,0,0,0,.056.28,0.3,0.3,0,0,1,0,.43l-0.341.34a0.573,0.573,0,0,0-.136.21c-0.008.03-.017,0.05-0.024,0.08h0a0.6,0.6,0,0,0,.16.57h0v0.01a0.625,0.625,0,0,0,.578.16h0l0.077-.03a0.607,0.607,0,0,0,.208-0.13l0.341-.35a0.3,0.3,0,0,1,.432.01,0.26,0.26,0,0,0,.278.05h0c0.6-.21,1.289-0.46,2.018-0.75,0.872-.34,2.009-0.84,2.94-1.29h0A0.4,0.4,0,0,0,211.166,5568.4Z" transform="translate(-203.969 -5547)"/>
</svg>
