<svg xmlns="http://www.w3.org/2000/svg" width="18" height="18" viewBox="0 0 18 18">
  <defs>
    <style>
      .cls-1 {
        fill: #fff;
        fill-rule: evenodd;
      }
    </style>
  </defs>
  <path id="search.svg" class="cls-1" d="M883.558,3953.22a0.149,0.149,0,0,0-.039-0.04c-1.959-1.7-3.316-2.94-3.994-3.57a1.184,1.184,0,0,1-.226-0.21,1.153,1.153,0,0,1-.266-0.74,1.258,1.258,0,0,1,.009-0.15,1.131,1.131,0,0,1,.073-0.28,1.1,1.1,0,0,1,.1-0.2A6.954,6.954,0,0,0,873,3938.01h-0.045a6.96,6.96,0,0,0-.044,13.92h0.045a6.942,6.942,0,0,0,3.085-.72,0.289,0.289,0,0,0,.075-0.04,1.258,1.258,0,0,1,.436-0.1h0.051a1.185,1.185,0,0,1,.739.26,1.21,1.21,0,0,1,.173.17c0.648,0.66,2,2.06,3.711,4.01,0.013,0.01.027,0.03,0.042,0.04a1.6,1.6,0,0,0,2.267-.06A1.643,1.643,0,0,0,883.558,3953.22Zm-6.941-4.57a5.074,5.074,0,0,1-3.659,1.5h-0.034a5.185,5.185,0,0,1,.033-10.37h0.035a5.193,5.193,0,0,1,4.837,6.99A5.134,5.134,0,0,1,876.617,3948.65Z" transform="translate(-866 -3938)"/>
</svg>
