<svg xmlns="http://www.w3.org/2000/svg" width="14" height="14" viewBox="0 0 14 14">
  <defs>
    <style>
      .cls-1 {
        fill: #fff;
        fill-rule: evenodd;
      }
    </style>
  </defs>
  <path id="dribble_icon.svg" class="cls-1" d="M269.008,393.008a6.992,6.992,0,1,0,7,6.993A7,7,0,0,0,269.008,393.008Zm4.442,3.222a5.791,5.791,0,0,1,1.374,3.383,29.163,29.163,0,0,0-3.983.048c-0.152-.386-0.31-0.766-0.479-1.129A7.043,7.043,0,0,0,273.45,396.23Zm-4.442-2.055a5.813,5.813,0,0,1,3.722,1.34,7.209,7.209,0,0,1-2.868,2.024,14.336,14.336,0,0,0-2.288-3.18A5.8,5.8,0,0,1,269.008,394.175Zm-2.639.634a14.032,14.032,0,0,1,2.326,3.152,15.338,15.338,0,0,1-4.436.632c-0.305,0-.6-0.012-0.9-0.029A5.839,5.839,0,0,1,266.369,394.809Zm-3.184,4.913c0.332,0.015.667,0.021,1.007,0.017a17.236,17.236,0,0,0,5.017-.779q0.205,0.432.394,0.886a3.521,3.521,0,0,0-.521.157,8.715,8.715,0,0,0-4.449,3.843A5.8,5.8,0,0,1,263.175,400C263.175,399.907,263.181,399.815,263.185,399.722Zm5.823,6.105a5.806,5.806,0,0,1-3.575-1.228,8.023,8.023,0,0,1,3.909-3.6,3.348,3.348,0,0,1,.634-0.192c0.207,0.577.4,1.174,0.557,1.791a20.876,20.876,0,0,1,.54,2.845A5.8,5.8,0,0,1,269.008,405.827Zm3.153-.928a20.974,20.974,0,0,0-.544-2.873c-0.124-.473-0.267-0.932-0.418-1.381a25.07,25.07,0,0,1,3.6,0A5.827,5.827,0,0,1,272.161,404.9Z" transform="translate(-262 -393)"/>
</svg>
