<svg xmlns="http://www.w3.org/2000/svg" width="20" height="14" viewBox="0 0 20 14">
  <defs>
    <style>
      .cls-1 {
        fill: #d9c26c;
        fill-rule: evenodd;
      }
    </style>
  </defs>
  <path id="e-mail_icon.svg" class="cls-1" d="M442.432,1232.22a0.5,0.5,0,0,0-.294.09s-8.359,7.09-8.43,7.14a1.194,1.194,0,0,1-1.436,0c-0.069-.06-8.425-7.14-8.425-7.14a0.5,0.5,0,0,0-.294-0.09,0.586,0.586,0,0,0-.563.61v9.82a1.316,1.316,0,0,0,1.266,1.36h17.473a1.316,1.316,0,0,0,1.265-1.36v-9.82A0.585,0.585,0,0,0,442.432,1232.22Zm-10.02,5.57a0.946,0.946,0,0,0,.588.21,0.957,0.957,0,0,0,.591-0.21l8.077-6.68,0.13-.11a0.648,0.648,0,0,0,.141-0.41,0.583,0.583,0,0,0-.563-0.6H424.624a0.582,0.582,0,0,0-.562.6,0.62,0.62,0,0,0,.17.44Z" transform="translate(-423 -1230)"/>
</svg>
