<svg xmlns="http://www.w3.org/2000/svg" width="15" height="14" viewBox="0 0 15 14">
  <defs>
    <style>
      .cls-1 {
        fill: #383737;
        fill-rule: evenodd;
      }
    </style>
  </defs>
  <path id="google_icon.svg" class="cls-1" d="M725,86.754h-2.308l0-2.295H722v2.295h-2.308v0.689H722v2.066l0.694,0.021,0-2.087H725V86.754Zm-7.672,5.3a2.837,2.837,0,0,1-1.164-1.348,1.423,1.423,0,0,1,.849-1.24,2.9,2.9,0,0,0,1.249-2.264,2.573,2.573,0,0,0-1.426-2.5h1.4l0.579-.242S715.911,84,714.806,84c-1.983,0-3.85,1.472-3.85,3.178a3.168,3.168,0,0,0,3.369,3.15c0.141,0,.277,0,0.41-0.012a1.738,1.738,0,0,0-.224.81,1.67,1.67,0,0,0,.6,1.2c-0.254,0-.5.008-0.766,0.008-2.457,0-4.347,1.533-4.347,3.123C710,97.02,712.072,98,714.528,98c2.8,0,4.347-1.558,4.347-3.123a3.009,3.009,0,0,0-1.546-2.817v0Zm-2.363-2.172h0a2.955,2.955,0,0,1-2.42-2.716c-0.2-1.467.568-2.59,1.707-2.556a2.909,2.909,0,0,1,2.419,2.677C716.867,88.757,716.1,89.919,714.965,89.886Zm-0.446,7.42h0c-1.7,0-2.924-1.053-2.924-2.319,0-1.24,1.521-2.272,3.218-2.255a3.757,3.757,0,0,1,1.1.173c0.922,0.628,1.583.983,1.769,1.7a1.907,1.907,0,0,1,.054.447C717.737,96.317,716.905,97.306,714.519,97.306Z" transform="translate(-710 -84)"/>
</svg>
