<svg xmlns="http://www.w3.org/2000/svg" width="12" height="12" viewBox="0 0 12 12">
  <defs>
    <style>
      .cls-1 {
        fill: #fff;
        fill-rule: evenodd;
      }
    </style>
  </defs>
  <path id="linkedin_icon.svg" class="cls-1" d="M331.73,405.006v-8.094h-2.571v8.094h2.571Zm-1.286-9.2a1.429,1.429,0,1,0-.017,0h0.017Zm2.71,9.2h2.572v-4.52a1.9,1.9,0,0,1,.085-0.657,1.415,1.415,0,0,1,1.319-.984c0.931,0,1.3.742,1.3,1.831v4.33h2.572v-4.641c0-2.487-1.269-3.643-2.961-3.643a2.548,2.548,0,0,0-2.335,1.363h0.017v-1.173h-2.572c0.034,0.759,0,8.094,0,8.094h0Z" transform="translate(-329 -393)"/>
</svg>
