<svg xmlns="http://www.w3.org/2000/svg" width="14" height="11" viewBox="0 0 14 11">
  <defs>
    <style>
      .cls-1 {
        fill: #383737;
        fill-rule: evenodd;
      }
    </style>
  </defs>
  <path id="twitter_logo.svg" class="cls-1" d="M680,86.3a5.9,5.9,0,0,1-1.65.438,2.8,2.8,0,0,0,1.263-1.537,5.866,5.866,0,0,1-1.824.674,2.915,2.915,0,0,0-2.1-.877,2.826,2.826,0,0,0-2.872,2.778,2.65,2.65,0,0,0,.075.633,8.251,8.251,0,0,1-5.921-2.9,2.7,2.7,0,0,0-.388,1.4,2.755,2.755,0,0,0,1.277,2.312,2.938,2.938,0,0,1-1.3-.347V88.9a2.8,2.8,0,0,0,2.3,2.724,2.974,2.974,0,0,1-.757.1,2.934,2.934,0,0,1-.54-0.05,2.863,2.863,0,0,0,2.683,1.929,5.886,5.886,0,0,1-3.567,1.189A6.037,6.037,0,0,1,666,94.751,8.333,8.333,0,0,0,670.4,96a7.977,7.977,0,0,0,8.172-7.9c0-.121,0-0.24-0.008-0.36A5.73,5.73,0,0,0,680,86.3Z" transform="translate(-666 -85)"/>
</svg>
