<svg xmlns="http://www.w3.org/2000/svg" width="14" height="12" viewBox="0 0 14 12">
  <defs>
    <style>
      .cls-1 {
        fill: #fff;
        fill-rule: evenodd;
      }
    </style>
  </defs>
  <path id="vimeo_icon.svg" class="cls-1" d="M652.944,1709.23a2,2,0,0,0-.26-1.64,2.558,2.558,0,0,0-2.318-.54,4.828,4.828,0,0,0-3.317,3.1c1.222-.09,1.863.09,1.746,1.43a4.864,4.864,0,0,1-.652,1.75c-0.366.68-1.054,2.01-1.956,1.05-0.812-.86-0.751-2.51-0.937-3.61a15.441,15.441,0,0,0-.416-2.02,2.06,2.06,0,0,0-1.068-1.34,2.239,2.239,0,0,0-1.564.31,28.645,28.645,0,0,0-3.206,2.56v0.08a1.275,1.275,0,0,0,.574.57c0.727,0.1,1.419-.67,1.9.14a8.063,8.063,0,0,1,.573,1.57c0.251,0.71.445,1.48,0.651,2.3,0.348,1.38.776,3.45,1.981,3.96a2.594,2.594,0,0,0,2.007-.37,11.062,11.062,0,0,0,3.1-2.92A19.817,19.817,0,0,0,652.944,1709.23Z" transform="translate(-639 -1707)"/>
</svg>
